<?xml version="1.0" standalone="no"?><!DOCTYPE svg PUBLIC "-//W3C//DTD SVG 1.1//EN" "http://www.w3.org/Graphics/SVG/1.1/DTD/svg11.dtd"><svg t="1568621719049" class="icon" viewBox="0 0 1037 1024" version="1.1" xmlns="http://www.w3.org/2000/svg" p-id="1041" xmlns:xlink="http://www.w3.org/1999/xlink" width="202.5390625" height="200"><defs><style type="text/css"></style></defs><path d="M145.413533 79.797783L13.291681 308.634102v33.292799a26.678757 26.678757 0 0 0 26.599261 26.599261h957.493898a26.678757 26.678757 0 0 0 26.599261-26.599261v-13.259882L880.351272 79.797783z" fill="#F0D0D3" p-id="1042"></path><path d="M997.38484 381.817843H39.890942A39.92274 39.92274 0 0 1 0 341.926901v-36.854206L137.750148 66.490203H887.96696l149.324721 258.647207v16.789491a39.938639 39.938639 0 0 1-39.906841 39.890942zM26.567463 312.19551v29.731391a13.30758 13.30758 0 0 0 13.30758 13.291681h957.509797a13.30758 13.30758 0 0 0 13.30758-13.291681v-9.666677L872.608391 93.089464H153.092817z" fill="#684C4B" p-id="1043"></path><path d="M891.862249 661.086234l132.121852-228.836319v-73.136044a26.678757 26.678757 0 0 0-26.599261-26.599261H39.890942a26.678757 26.678757 0 0 0-26.599261 26.599261v53.119027L156.940409 661.086234z" fill="#F0D0D3" p-id="1044"></path><path d="M899.525634 674.393814H149.308822L0 415.746607v-56.680433a39.92274 39.92274 0 0 1 39.890942-39.938639h957.493898a39.938639 39.938639 0 0 1 39.906841 39.890942v76.745148z m-734.858243-26.599261h719.515573l126.541254-219.106046v-69.622333a13.30758 13.30758 0 0 0-13.30758-13.291681H39.890942a13.30758 13.30758 0 0 0-13.30758 13.291681v49.557619z" fill="#684C4B" p-id="1045"></path><path d="M146.287986 13.291681l731.424028 0 0 758.02329-731.424028 0 0-758.02329Z" fill="#EBDD9E" p-id="1046"></path><path d="M854.197187 784.622551H169.786914a36.854206 36.854206 0 0 1-36.806508-36.806509V36.806509A36.838307 36.838307 0 0 1 169.786914 0h684.410273a36.838307 36.838307 0 0 1 36.806508 36.806509v711.009533a36.854206 36.854206 0 0 1-36.806508 36.806509zM169.786914 26.583362a10.223147 10.223147 0 0 0-10.207248 10.207248v711.009533a10.223147 10.223147 0 0 0 10.207248 10.207248h684.410273a10.223147 10.223147 0 0 0 10.207247-10.207248V36.806509a10.223147 10.223147 0 0 0-10.207247-10.207248z" fill="#684C4B" p-id="1047"></path><path d="M891.862249 661.086234H156.940409L13.291681 412.1852v571.907959a26.678757 26.678757 0 0 0 26.599261 26.646958h957.493898a26.678757 26.678757 0 0 0 26.599261-26.599261V432.249915z" fill="#F0D0D3" p-id="1048"></path><path d="M997.38484 1024H39.890942A39.938639 39.938639 0 0 1 0 984.109058V362.548086l164.667391 285.246467h719.515573l153.108717-265.181753v601.496258a39.954538 39.954538 0 0 1-39.906841 39.890942zM26.567463 461.822315v522.286743a13.30758 13.30758 0 0 0 13.30758 13.291681h957.509797a13.30758 13.30758 0 0 0 13.30758-13.291681V481.87113l-111.166786 192.522684H149.308822z" fill="#684C4B" p-id="1049"></path><path d="M279.268391 385.665435h478.754899v26.599261H279.268391zM279.268391 452.155638h478.754899v26.599261H279.268391zM279.268391 531.937521h478.754899v26.599261H279.268391z" fill="#684C4B" p-id="1050"></path><path d="M412.534981 194.859858c-6.916126-19.365152-6.709437-40.606403 5.723691-57.761575 10.970406-15.120082 28.697947-24.055399 46.822966-20.52579a33.706176 33.706176 0 0 1 5.326212 1.510419c3.370618 1.256032 33.881067 17.345962 29.906282 22.942458 14.643108-20.557588 41.21057-50.575164 68.620688-39.954538 20.668882 8.044965 27.36242 34.978108 27.966587 56.219358 1.367326 47.967705-23.48303 87.445269-45.344347 125.460113-1.017545 1.748905-15.406266 25.438624-13.848151 26.678756-20.128311-15.438065-40.940285-29.715492-61.084495-45.105859-19.078968-14.563612-40.367916-30.208366-54.502251-50.877248a82.07136 82.07136 0 0 1-9.587182-18.586094z" fill="#AFCED3" p-id="1051"></path><path d="M537.69301 319.127535a9.698475 9.698475 0 0 1-5.898581-2.019191c-10.127752-7.75878-20.430395-15.231376-30.717138-22.703972s-20.303202-14.722603-30.303761-22.370089l-3.49781-2.655157c-18.331708-13.848151-39.032388-29.667795-53.198522-50.416172a92.071919 92.071919 0 0 1-10.700121-20.827873c-8.808123-24.643667-6.359656-48.349284 7.01152-66.776388 13.895848-19.078968 35.566376-28.475359 56.56914-24.373381a44.231407 44.231407 0 0 1 6.868428 1.939695c0.222588 0.079496 15.89914 7.106916 26.662858 15.756048 30.669441-37.808155 55.82188-38.984691 71.975406-32.72043 29.492904 11.431482 33.737975 49.287333 34.18315 65.011583 1.367326 47.792814-20.970965 86.332329-42.593795 123.599913l-4.865137 8.474241c-8.235754 13.848151-10.875012 19.078968-11.717666 21.08226a9.746173 9.746173 0 0 1-9.730274 9.04661z m6.073471-17.37776a8.967115 8.967115 0 0 1 1.415024 1.383225 8.998913 8.998913 0 0 0-1.415024-1.335528zM457.147968 125.555507c-11.542776 0-23.021954 6.264261-31.003323 17.266466-12.719312 17.584449-8.251654 38.157936-4.43586 48.762662a72.468279 72.468279 0 0 0 8.442443 16.423811c12.401329 18.10912 30.939726 32.227556 48.858057 45.884918l3.529609 2.686955c9.873366 7.536192 19.889824 14.849797 29.906282 22.068006 7.075117 5.135422 14.166134 10.270844 21.177654 15.501661 2.305375-4.181474 5.246716-9.142005 8.776325-15.072385l4.769742-8.251653c20.239605-34.978108 41.178772-71.005558 39.970438-113.265472-0.270285-9.2374-2.623358-39.986337-21.750023-47.395336-21.209453-8.235754-44.946868 19.333354-57.236904 36.568022a9.730274 9.730274 0 0 1-17.632146-4.865137c-4.674347-4.388163-19.333354-12.830606-23.705617-14.643108a22.020309 22.020309 0 0 0-3.688601-1.017545 31.162314 31.162314 0 0 0-5.978076-0.651865z m35.264292 9.80977z" fill="#684C4B" p-id="1052"></path></svg>