<?xml version="1.0" encoding="UTF-8"?>
<svg width="168px" height="16px" viewBox="0 0 168 16" version="1.1" xmlns="http://www.w3.org/2000/svg" xmlns:xlink="http://www.w3.org/1999/xlink">
    <!-- Generator: Sketch 49 (51002) - http://www.bohemiancoding.com/sketch -->
    <title>logo</title>
    <desc>Created with Sketch.</desc>
    <defs></defs>
    <g id="百家云双师互动课堂" stroke="none" stroke-width="1" fill="none" fill-rule="evenodd">
        <g id="百家云双师互动课堂-登录" transform="translate(-21.000000, -24.000000)" fill="#FFFFFF">
            <g id="topbar">
                <g id="logo" transform="translate(21.000000, 24.000000)">
                    <path d="M33.7617188,1.046875 L47.3554688,1.046875 L47.3554688,2.98046875 L42.2578125,2.98046875 L41.9648438,4.2109375 L46.7695312,4.2109375 L46.7695312,12.6484375 C46.8476566,13.8203184 46.2031318,14.3867189 44.8359375,14.3476562 L34.40625,14.3476562 L34.40625,4.2109375 L39.1523438,4.2109375 L39.3867188,2.98046875 L33.7617188,2.98046875 L33.7617188,1.046875 Z M36.6914062,8.25390625 L44.484375,8.25390625 L44.484375,5.96875 L36.6914062,5.96875 L36.6914062,8.25390625 Z M44.484375,11.9453125 L44.484375,10.2460938 L36.6914062,10.2460938 L36.6914062,12.53125 L43.8984375,12.53125 C44.3281271,12.6093754 44.5234377,12.4140648 44.484375,11.9453125 Z M54.6796875,1.45703125 L54.6796875,0.9296875 L56.90625,0.9296875 L56.90625,1.45703125 L62.53125,1.45703125 L62.1210938,3.68359375 L60.0703125,3.68359375 L60.0703125,3.15625 L51.1640625,3.15625 L51.1640625,3.625 L48.9960938,3.625 L48.9960938,1.45703125 L54.6796875,1.45703125 Z M62.3554688,4.03515625 L62.3554688,5.67578125 L54.328125,5.67578125 L53.9765625,6.3203125 L57.9609375,6.3203125 L57.9609375,13 C57.9609375,13.9375047 57.5507854,14.3867189 56.7304688,14.3476562 L54.2109375,14.3476562 L54.2109375,12.8828125 L55.3828125,12.8828125 C55.6953141,12.9218752 55.8515625,12.7851578 55.8515625,12.4726562 L55.8515625,7.90234375 L53.15625,7.90234375 C52.9218738,8.21484531 52.5117217,8.33203164 51.9257812,8.25390625 L48.9960938,8.25390625 L48.9960938,6.61328125 L50.8710938,6.61328125 C51.1445326,6.65234395 51.3593742,6.55468867 51.515625,6.3203125 L51.9257812,5.67578125 L49.1132812,5.67578125 L49.1132812,4.03515625 L62.3554688,4.03515625 Z M58.3710938,7.140625 L59.1914062,7.140625 C59.5039078,7.1796877 59.7187494,7.08203242 59.8359375,6.84765625 L60.3046875,6.203125 L62.2382812,6.203125 L60.9492188,8.37109375 C60.8320307,8.68359531 60.4804717,8.8203127 59.8945312,8.78125 L58.3710938,8.78125 L58.3710938,7.140625 Z M48.9960938,9.66015625 L51.046875,9.66015625 C51.2421885,9.69921895 51.4960922,9.58203262 51.8085938,9.30859375 L52.5703125,8.60546875 L54.796875,8.60546875 L52.5117188,11.0664063 C52.355468,11.3398451 51.9843779,11.4570314 51.3984375,11.4179688 L48.9960938,11.4179688 L48.9960938,9.66015625 Z M62.4140625,14.3476562 L60.3046875,14.3476562 C59.4453082,14.4257816 59.015625,13.9960984 59.015625,13.0585938 L58.6054688,9.484375 L60.5390625,9.484375 L60.9492188,12.4140625 C60.9492188,12.7265641 61.0859361,12.8437504 61.359375,12.765625 L62.4140625,12.765625 L62.4140625,14.3476562 Z M48.9960938,12.8828125 L50.8710938,12.8828125 C51.2617207,12.9218752 51.5546865,12.8046889 51.75,12.53125 L52.8632812,11.4179688 L55.03125,11.4179688 L52.9804688,13.8789062 C52.6679672,14.1914078 52.238284,14.3476562 51.6914062,14.3476562 L48.9960938,14.3476562 L48.9960938,12.8828125 Z M77.296875,3.21484375 L64.171875,3.21484375 L64.171875,1.33984375 L77.296875,1.33984375 L77.296875,3.21484375 Z M64.171875,12.9414062 L66.1640625,7.78515625 L64.171875,7.78515625 L64.171875,5.91015625 L77.296875,5.91015625 L77.296875,7.78515625 L68.2734375,7.78515625 L66.515625,12.4140625 L74.953125,12.4140625 C75.1093758,12.4531252 75.1875,12.375001 75.1875,12.1796875 L75.1875,10.0117188 L77.2382812,10.0117188 L77.2382812,12.8242188 C77.2382812,13.7617234 76.789067,14.2304688 75.890625,14.2304688 L64.171875,14.2304688 L64.171875,12.9414062 Z M86.0859375,2.74609375 L86.0859375,0.9296875 L92.7070312,0.9296875 L92.7070312,2.5703125 L90.3046875,9.484375 L91.359375,12.2382812 C91.3984377,12.5507828 91.5742172,12.6875002 91.8867188,12.6484375 L92.6484375,12.6484375 L92.6484375,14.171875 L90.890625,14.171875 C90.38281,14.171875 90.050782,13.9179713 89.8945312,13.4101562 L89.3671875,12.1796875 L88.8984375,13.4101562 C88.7421867,13.957034 88.3710967,14.2304688 87.7851562,14.2304688 L86.203125,14.2304688 L86.203125,12.6484375 L86.671875,12.6484375 C86.9843766,12.6875002 87.1601561,12.5703139 87.1992188,12.296875 L88.2539062,9.25 L86.0273438,3.56640625 L87.9609375,3.56640625 L89.1914062,6.7890625 L90.4804688,2.74609375 L86.0859375,2.74609375 Z M82.3359375,6.4375 L83.4492188,2.8046875 L79.3476562,2.8046875 L79.3476562,0.98828125 L85.6171875,0.98828125 L85.6171875,2.5703125 L83.3320312,9.1328125 L84.5625,12.3554688 C84.6406254,12.5898449 84.7773428,12.6875002 84.9726562,12.6484375 L85.6757812,12.6484375 L85.6757812,14.2304688 L84.0351562,14.2304688 C83.5273412,14.2304688 83.2148443,13.9960961 83.0976562,13.5273438 L82.3945312,11.7695313 L81.75,13.5273438 C81.5546865,14.0351588 81.2226586,14.2695314 80.7539062,14.2304688 L79.40625,14.2304688 L79.40625,12.6484375 L79.9335938,12.6484375 C80.0507818,12.6875002 80.1289061,12.628907 80.1679688,12.4726563 L81.3984375,8.95703125 L79.40625,3.625 L81.2226562,3.625 L82.3359375,6.4375 Z M102.492188,2.98046875 L99.5039062,2.98046875 L99.5039062,1.22265625 L107.296875,1.22265625 L107.296875,2.98046875 L104.367188,2.98046875 L104.367188,4.328125 L107.355469,4.328125 L107.355469,12.9414062 C107.433594,13.8007855 107.101566,14.1914066 106.359375,14.1132812 L104.835938,14.1132812 L104.835938,12.5898438 L105.304688,12.5898438 C105.421876,12.6289064 105.480469,12.5703133 105.480469,12.4140625 L105.480469,6.0859375 L104.367188,6.0859375 L104.367188,14.4648438 L102.492188,14.4648438 L102.492188,6.0859375 L101.378906,6.0859375 L101.378906,14.1132812 L99.5039062,14.1132812 L99.5039062,4.328125 L102.492188,4.328125 L102.492188,2.98046875 Z M96.8085938,1.1640625 L98.7421875,1.1640625 L98.7421875,13 C98.7812502,13.9765674 98.4296912,14.4453127 97.6875,14.40625 L94.40625,14.40625 L94.40625,13 L96.6328125,13 C96.7500006,13 96.8085938,12.9414068 96.8085938,12.8242188 L96.8085938,1.1640625 Z M94.40625,12.0625 L94.40625,1.515625 L96.2226562,1.515625 L96.2226562,12.0625 L94.40625,12.0625 Z M110.34375,2.5703125 L109.113281,2.5703125 L109.113281,0.9296875 L122.0625,0.9296875 L122.0625,2.5703125 L112.335938,2.5703125 L112.160156,4.03515625 L121.652344,4.03515625 L120.832031,12.7070312 L122.121094,12.7070312 L122.121094,14.2890625 L108.820312,14.2890625 L108.820312,12.7070312 L118.664062,12.7070312 L118.839844,11.1835938 L109.289062,11.1835938 L110.34375,2.5703125 Z M119.367188,5.6171875 L112.101562,5.6171875 L111.574219,9.6015625 L118.957031,9.6015625 L119.367188,5.6171875 Z M130.675781,3.859375 L130.675781,1.80859375 L132.199219,1.80859375 L132.257812,0.98828125 L134.367188,0.98828125 L134.308594,1.80859375 L137.355469,1.80859375 L137.355469,13 C137.394531,13.9765674 136.984379,14.4453127 136.125,14.40625 L134.074219,14.40625 L134.074219,12.6484375 L134.953125,12.6484375 C135.03125,12.6875002 135.070312,12.609376 135.070312,12.4140625 L135.070312,3.859375 L134.132812,3.859375 L133.195312,13.3515625 C133.117187,14.054691 132.726566,14.3867189 132.023438,14.3476562 L130.382812,14.3476562 L130.382812,12.5898437 L130.96875,12.5898437 L131.027344,12.6484375 C131.105469,12.6484375 131.144531,12.5898443 131.144531,12.4726562 L132.023438,3.859375 L130.675781,3.859375 Z M124.289062,3.15625 L124.289062,1.10546875 L130.148438,1.10546875 L130.148438,3.15625 L124.289062,3.15625 Z M124.171875,6.96484375 L124.171875,4.9140625 L130.089844,4.9140625 L130.089844,6.96484375 L127.6875,6.96484375 L126.222656,12.6484375 L127.863281,12.6484375 C127.980469,12.6484375 128.039062,12.5898443 128.039062,12.4726562 L128.039062,10.1875 L130.03125,10.1875 L130.03125,13.1171875 C130.109375,14.0546922 129.718754,14.4843754 128.859375,14.40625 L124.054688,14.40625 L124.054688,12.53125 L125.636719,6.96484375 L124.171875,6.96484375 Z M144.035156,7.43359375 L144.035156,0.87109375 L152.238281,0.87109375 L152.238281,6.203125 C152.316407,7.14062969 151.925786,7.55078184 151.066406,7.43359375 L149.191406,7.43359375 L149.191406,8.1953125 L152.296875,8.1953125 L152.296875,9.8359375 L149.191406,9.8359375 L149.191406,14.40625 L147.316406,14.40625 L147.316406,9.8359375 L143.976562,9.8359375 L143.976562,8.1953125 L147.316406,8.1953125 L147.316406,7.43359375 L144.035156,7.43359375 Z M143.15625,1.1640625 L143.15625,3.09765625 L139.054688,3.09765625 L139.054688,1.1640625 L143.15625,1.1640625 Z M149.191406,3.5078125 L150.304688,3.5078125 L150.304688,2.51171875 L149.191406,2.51171875 L149.191406,3.5078125 Z M146.144531,2.51171875 L146.144531,3.5078125 L147.316406,3.5078125 L147.316406,2.51171875 L146.144531,2.51171875 Z M150.304688,5.55859375 L150.304688,4.85546875 L149.191406,4.85546875 L149.191406,5.91015625 L149.953125,5.91015625 C150.187501,5.94921895 150.304688,5.83203262 150.304688,5.55859375 Z M146.144531,4.85546875 L146.144531,5.91015625 L147.316406,5.91015625 L147.316406,4.85546875 L146.144531,4.85546875 Z M140.285156,6.96484375 L138.996094,6.96484375 L138.996094,5.1484375 L142.394531,5.1484375 L142.394531,12.0039062 C142.394531,12.3554705 142.511718,12.5117189 142.746094,12.4726562 L143.390625,12.4726562 L143.390625,14.2890625 L141.515625,14.2890625 C140.656246,14.3281252 140.246094,13.898442 140.285156,13 L140.285156,6.96484375 Z M143.917969,12.53125 L144.503906,12.53125 C144.69922,12.5703127 144.855468,12.4335953 144.972656,12.1210938 L145.441406,10.421875 L147.199219,10.421875 L146.496094,13.1757812 C146.378906,13.8007844 145.988285,14.0937502 145.324219,14.0546875 L143.917969,14.0546875 L143.917969,12.53125 Z M149.953125,13.2929688 L149.367188,10.421875 L151.242188,10.421875 L151.59375,12.1210938 C151.59375,12.3945326 151.730467,12.5117189 152.003906,12.4726562 L152.296875,12.4726562 L152.296875,14.0546875 L150.949219,14.0546875 C150.324216,14.0546875 149.992188,13.8007838 149.953125,13.2929688 Z M157.921875,2.98046875 L159.5625,2.98046875 L159.5625,0.87109375 L161.789062,0.87109375 L161.789062,2.98046875 L163.546875,2.98046875 L164.835938,0.98828125 L167.0625,0.98828125 L166.066406,2.98046875 L167.355469,2.98046875 L167.0625,5.20703125 L164.953125,5.20703125 L165.011719,4.6796875 L156.164062,4.6796875 L156.164062,5.20703125 L153.996094,5.20703125 L153.996094,2.921875 L155.402344,2.921875 L154.289062,0.98828125 L156.691406,0.98828125 L157.921875,2.98046875 Z M159.503906,9.66015625 L154.289062,9.66015625 L154.289062,5.5 L167.0625,5.5 L167.0625,8.546875 C167.0625,9.32812891 166.710941,9.69921895 166.007812,9.66015625 L161.730469,9.66015625 L161.730469,10.3632812 L167.0625,10.3632812 L167.0625,12.0039062 L161.730469,12.0039062 L161.730469,12.5898438 L167.296875,12.5898438 L167.296875,14.171875 L153.878906,14.171875 L153.878906,12.5898438 L159.503906,12.5898438 L159.503906,12.0039062 L154.289062,12.0039062 L154.289062,10.3632812 L159.503906,10.3632812 L159.503906,9.66015625 Z M156.515625,8.078125 L164.660156,8.078125 C164.777344,8.078125 164.835938,8.01953184 164.835938,7.90234375 L164.835938,7.2578125 L156.515625,7.2578125 L156.515625,8.078125 Z" id="百家云双师互动课堂"></path>
                    <path d="M18.6151548,5.48319535 C19.9687408,6.91138849 19.9481899,9.15664957 18.5689731,10.55988 C17.2239308,11.9295955 15.0349177,11.9806767 13.6275301,10.6754483 L13.6129828,10.6941703 L9.44808526,6.42761956 C8.61150358,5.62349528 7.28470303,5.64244848 6.47144311,6.46991756 C5.66026136,7.29669323 5.63601596,8.6139408 6.41625596,9.47030196 L6.42087413,9.46567923 L10.5432845,13.6413933 C11.3316063,14.5060754 12.3282076,15.1537202 13.4379542,15.5230765 L13.4361069,15.5258501 C16.3155365,16.5705876 19.5392508,15.8392714 21.6871622,13.6536436 C24.7709459,10.5145772 24.7709459,5.48042171 21.6871622,2.34158648 C19.5898198,0.207270976 16.4610089,-0.544616433 13.6245283,0.404199372 L18.6276239,5.47094511 L18.6151548,5.48319535 Z M2.31301098,13.6584974 C4.40942973,15.7928129 7.53800971,16.5447003 10.3742595,15.5956534 L5.38386382,10.5161951 C4.03027788,9.08730859 4.05082875,6.84227865 5.43004553,5.43858598 C7.9155452,2.9205837 10.4848647,5.44343985 10.4848647,5.44343985 L14.4795826,9.49110425 C14.4795826,9.49110425 16.0670789,11.0096718 17.5291919,9.52854839 C18.3403736,8.70200385 18.364619,7.38498742 17.584379,6.52908853 L17.5797609,6.53371127 L13.756608,2.6624041 C12.6512487,1.26957486 11.0457415,0.364906147 9.28298565,0.141628177 L9.29176017,0.128684527 C6.74252975,-0.334975523 4.12910674,0.494804925 2.31301098,2.34459125 C-0.771003658,5.4841199 -0.771003658,10.5189688 2.31301098,13.6584974 L2.31301098,13.6584974 Z" id="Fill-1"></path>
                </g>
            </g>
        </g>
    </g>
</svg>